<?xml version="1.0" encoding="UTF-8" standalone="no"?>
<!-- Created with Inkscape (http://www.inkscape.org/) -->

<svg
   width="24.069mm"
   height="24.073mm"
   viewBox="0 0 24.069 24.073"
   version="1.1"
   id="svg1"
   xml:space="preserve"
   inkscape:version="1.3.2 (091e20e, 2023-11-25, custom)"
   sodipodi:docname="antena_blue.svg"
   xmlns:inkscape="http://www.inkscape.org/namespaces/inkscape"
   xmlns:sodipodi="http://sodipodi.sourceforge.net/DTD/sodipodi-0.dtd"
   xmlns="http://www.w3.org/2000/svg"
   xmlns:svg="http://www.w3.org/2000/svg"><sodipodi:namedview
     id="namedview1"
     pagecolor="#505050"
     bordercolor="#eeeeee"
     borderopacity="1"
     inkscape:showpageshadow="0"
     inkscape:pageopacity="0"
     inkscape:pagecheckerboard="0"
     inkscape:deskcolor="#505050"
     inkscape:document-units="mm"
     inkscape:zoom="2.768771"
     inkscape:cx="77.832366"
     inkscape:cy="50.022193"
     inkscape:window-width="1920"
     inkscape:window-height="991"
     inkscape:window-x="-9"
     inkscape:window-y="-9"
     inkscape:window-maximized="1"
     inkscape:current-layer="layer1" /><defs
     id="defs1" /><g
     inkscape:label="Layer 1"
     inkscape:groupmode="layer"
     id="layer1"><g
       data-name="Satellite Dish"
       id="Satellite_Dish"
       transform="matrix(0.41390006,0,0,0.3846474,-1.2103018,-0.27228609)"
       style="fill:#003466;fill-opacity:1"><path
         d="m 59.856,56.0254 h -3.9742 v -14.917 a 8.9792,8.9792 0 0 0 -6.36,-8.57 L 42.0246,26.066 c 0.1663,-0.5392 0.3184,-1.09 0.4442,-1.6822 V 24.3819 A 19.479,19.479 0 0 0 31.1128,2.545 L 27.72,1.0821 a 1,1 0 0 0 -1.3139,0.5215 l -3.1024,7.1795 -11.147,2.8316 a 3.7642,3.7642 0 1 0 -3.8022,6.4244 3.7231,3.7231 0 0 0 0.9283,0.25 L 14.89,28.3379 11.8013,35.52 a 0.999,0.999 0 0 0 0.5229,1.3134 l 3.3916,1.462 A 19.3066,19.3066 0 0 0 33.66,36.9614 l 4.3042,5.658 v 13.406 H 33 v -8.9482 a 1,1 0 0 0 -1,-1 H 11.1079 a 1,1 0 0 0 -1,1 v 8.9482 H 4.144 a 1,1 0 0 0 -1,1 V 62 a 1,1 0 0 0 1,1 h 55.712 a 1,1 0 0 0 1,-1 v -4.9746 a 1,1 0 0 0 -1,-1 z M 19.497,17.648 13.5644,15.0912 a 3.7233,3.7233 0 0 0 -0.1645,-1.73 L 22.3038,11.1 Z M 8.2192,13.876 a 1.7656,1.7656 0 0 1 2.3252,-0.9258 h 5e-4 a 1.7685,1.7685 0 0 1 0.9282,2.3178 l -0.0058,0.0084 -0.0018,0.0083 A 1.7694,1.7694 0 0 1 8.2192,13.876 Z m 3.193,4.1261 a 3.7662,3.7662 0 0 0 1.3683,-1.0714 l 5.9195,2.551 -2.813,6.5388 z M 16.5078,36.459 14.0332,35.3926 20.8779,19.48 a 0.9615,0.9615 0 0 0 0.063,-0.124 l 3.9454,-9.2046 c 0.0135,-0.022 0.02,-0.0467 0.0313,-0.07 0.011,-0.0213 0.022,-0.0426 0.0316,-0.0647 l 2.8965,-6.7031 2.4766,1.0684 a 17.4738,17.4738 0 0 1 10.19,19.5859 17.0092,17.0092 0 0 1 -0.5938,2.1289 12.0314,12.0314 0 0 1 -0.4614,1.2256 17.3514,17.3514 0 0 1 -6.1225,7.4785 l -9e-4,9e-4 v 0 A 17.3834,17.3834 0 0 1 16.5078,36.459 Z m 18.88,-0.6878 c 0.3635,-0.2836 0.7224,-0.58 1.0719,-0.8942 a 19.26,19.26 0 0 0 4.8339,-6.7627 l 0.0118,-0.0273 4.7529,4.1035 -0.0313,0.0043 c -0.0458,0.0046 -0.09,0.0135 -0.1356,0.0188 -0.2325,0.0268 -0.4625,0.0612 -0.6893,0.1055 -0.0889,0.0174 -0.1759,0.0393 -0.2639,0.0594 -0.1828,0.0415 -0.3635,0.0871 -0.5419,0.14 -0.0934,0.0275 -0.1857,0.0567 -0.2778,0.0872 -0.173,0.0572 -0.343,0.12 -0.5112,0.1874 -0.0859,0.0344 -0.1722,0.0674 -0.2568,0.1044 -0.1881,0.0821 -0.3715,0.1722 -0.5526,0.2666 -0.057,0.03 -0.1158,0.0559 -0.1721,0.0868 q -0.3524,0.1933 -0.6849,0.4165 c -0.049,0.0329 -0.0947,0.07 -0.1429,0.1035 -0.17,0.1191 -0.3366,0.2421 -0.4976,0.3724 -0.0722,0.0584 -0.1413,0.12 -0.2117,0.1806 -0.1328,0.1143 -0.2625,0.2313 -0.3884,0.3531 q -0.1068,0.1033 -0.21,0.21 c -0.1214,0.1255 -0.2382,0.255 -0.3522,0.3874 -0.061,0.0708 -0.123,0.14 -0.1818,0.213 -0.1283,0.1587 -0.2494,0.323 -0.3669,0.49 -0.0357,0.051 -0.0747,0.0995 -0.1094,0.1512 q -0.2219,0.33 -0.4143,0.681 c -0.0333,0.0606 -0.0615,0.124 -0.0934,0.1853 -0.0917,0.1767 -0.18,0.3554 -0.26,0.5386 -0.0385,0.088 -0.0728,0.1776 -0.1085,0.267 -0.0655,0.1641 -0.1269,0.33 -0.1828,0.4988 -0.0317,0.0955 -0.062,0.1913 -0.09,0.2882 -0.0513,0.1746 -0.0959,0.3517 -0.1367,0.53 -0.0208,0.0911 -0.0435,0.181 -0.0614,0.2731 -0.0075,0.0384 -0.0186,0.0754 -0.0256,0.1139 L 35.314,35.833 c 0.0252,-0.0194 0.049,-0.0423 0.0741,-0.0618 z m 4.5758,6.5111 v -1.1739 a 6.9668,6.9668 0 0 1 6.959,-6.9589 7.05,7.05 0 0 1 1.8372,0.2438 6.9759,6.9759 0 0 1 5.1217,6.7151 v 14.917 H 39.9639 Z M 31,56.0254 H 25.041 V 48.0772 H 31 Z M 12.1079,48.0772 H 23.041 v 7.9482 H 12.1079 Z M 58.856,61 H 5.144 v -2.9746 h 53.712 z"
         id="path1"
         style="fill:#003466;fill-opacity:1" /><path
         d="m 46.9229,37.1231 a 3.9849,3.9849 0 1 0 3.9848,3.9853 3.99,3.99 0 0 0 -3.9848,-3.9853 z m 0,5.97 a 1.9849,1.9849 0 1 1 1.9848,-1.9844 1.9868,1.9868 0 0 1 -1.9848,1.9841 z"
         id="path2"
         style="fill:#003466;fill-opacity:1" /></g></g></svg>
