<?xml version="1.0" encoding="UTF-8" standalone="no"?>
<!-- Created with Inkscape (http://www.inkscape.org/) -->

<svg
   width="24.069mm"
   height="24.073mm"
   viewBox="0 0 24.069 24.073"
   version="1.1"
   id="svg1"
   xml:space="preserve"
   inkscape:version="1.3.2 (091e20e, 2023-11-25, custom)"
   sodipodi:docname="astroid_blue.svg"
   xmlns:inkscape="http://www.inkscape.org/namespaces/inkscape"
   xmlns:sodipodi="http://sodipodi.sourceforge.net/DTD/sodipodi-0.dtd"
   xmlns="http://www.w3.org/2000/svg"
   xmlns:svg="http://www.w3.org/2000/svg"><sodipodi:namedview
     id="namedview1"
     pagecolor="#505050"
     bordercolor="#eeeeee"
     borderopacity="1"
     inkscape:showpageshadow="0"
     inkscape:pageopacity="0"
     inkscape:pagecheckerboard="0"
     inkscape:deskcolor="#505050"
     inkscape:document-units="mm"
     inkscape:zoom="2.768771"
     inkscape:cx="76.02651"
     inkscape:cy="79.999392"
     inkscape:window-width="1920"
     inkscape:window-height="991"
     inkscape:window-x="-9"
     inkscape:window-y="-9"
     inkscape:window-maximized="1"
     inkscape:current-layer="layer1" /><defs
     id="defs1" /><g
     inkscape:label="Layer 1"
     inkscape:groupmode="layer"
     id="layer1"><g
       id="g1"
       transform="matrix(0.03242521,0,0,0.03242521,-0.93558263,-0.93356655)"
       style="fill:#003466;fill-opacity:1"><path
         d="m 466.858,333.141 c -46.849,-46.848 -109.142,-72.65 -175.396,-72.65 -55.016,0 -107.264,17.842 -150.242,50.7 -0.636,0.44 -1.245,0.911 -1.819,1.422 -8.117,6.328 -15.94,13.134 -23.334,20.528 -46.851,46.853 -72.652,109.142 -72.652,175.396 0,66.259 25.801,128.544 72.652,175.397 46.849,46.851 109.138,72.649 175.396,72.649 55.051,0 107.332,-17.866 150.327,-50.766 0.631,-0.438 1.245,-0.903 1.824,-1.427 8.088,-6.307 15.878,-13.089 23.244,-20.458 33.577,-33.579 56.271,-75.104 66.474,-120.319 0.737,-1.854 1.152,-3.782 1.281,-5.72 3.228,-16.076 4.896,-32.588 4.896,-49.358 0,-66.253 -25.802,-128.542 -72.651,-175.394 z M 287.263,298.475 c 0.065,1.142 0.12,2.284 0.12,3.432 0,33.206 -27.014,60.218 -60.219,60.218 -21.389,0 -40.694,-11.208 -51.445,-28.893 32.124,-21.281 70.398,-33.943 111.544,-34.757 z m 142.976,367.7 c -12.048,-11.247 -18.982,-26.912 -18.982,-43.896 0,-33.206 27.016,-60.219 60.217,-60.219 7.629,0 15.078,1.426 22.041,4.165 -11.202,39.177 -33.493,73.702 -63.276,99.95 z m 70.409,-137.563 c -9.369,-2.915 -19.181,-4.431 -29.176,-4.431 -54.089,0 -98.094,44.008 -98.094,98.098 0,24.834 9.623,48.557 26.084,66.474 -31.582,19 -68.533,29.955 -108.001,29.955 -115.89,0 -210.171,-94.284 -210.171,-210.172 0,-59.491 24.891,-113.25 64.753,-151.522 17.924,26.429 47.971,42.989 81.119,42.989 54.089,0 98.095,-44.008 98.095,-98.097 0,-0.265 -0.024,-0.525 -0.027,-0.789 99.885,16.205 176.4,103.029 176.4,207.419 0.002,6.775 -0.351,13.464 -0.982,20.076 z"
         fill="#041c3f"
         id="path1"
         style="fill:#003466;fill-opacity:1" /><g
         id="g2"
         style="fill:#003466;fill-opacity:1"><path
           d="m 737.643,248.897 c 4.852,0 9.689,1.847 13.395,5.544 7.396,7.397 7.396,19.387 0,26.784 L 603.249,429.01 c -7.392,7.396 -19.385,7.396 -26.78,0 -7.396,-7.396 -7.396,-19.387 0,-26.783 L 724.252,254.442 c 3.699,-3.698 8.545,-5.545 13.391,-5.545 z"
           fill="#041c3f"
           id="path2"
           style="fill:#003466;fill-opacity:1" /></g><g
         id="g3"
         style="fill:#003466;fill-opacity:1"><path
           d="m 737.643,43.416 c 4.852,0 9.689,1.849 13.395,5.548 7.396,7.396 7.396,19.39 0,26.784 l -215.49,215.486 c -7.396,7.396 -19.386,7.396 -26.781,0 -7.396,-7.397 -7.396,-19.387 0,-26.785 L 724.252,48.964 c 3.699,-3.696 8.545,-5.548 13.391,-5.548 z"
           fill="#041c3f"
           id="path3-7"
           style="fill:#003466;fill-opacity:1" /></g><g
         id="g4"
         style="fill:#003466;fill-opacity:1"><path
           d="m 532.165,43.416 c 4.849,0 9.694,1.849 13.392,5.551 7.396,7.396 7.396,19.387 0,26.781 L 397.771,223.529 c -7.396,7.396 -19.384,7.396 -26.781,0 -7.396,-7.397 -7.396,-19.388 0,-26.785 L 518.775,48.964 c 3.697,-3.696 8.545,-5.548 13.39,-5.548 z"
           fill="#041c3f"
           id="path4-4"
           style="fill:#003466;fill-opacity:1" /></g><path
         d="m 227.164,488.611 c -41.56,0 -75.369,33.811 -75.369,75.37 0,41.557 33.809,75.367 75.369,75.367 41.558,0 75.37,-33.812 75.37,-75.367 0,-41.559 -33.812,-75.37 -75.37,-75.37 z m 0,112.864 c -20.673,0 -37.494,-16.819 -37.494,-37.492 0,-20.676 16.82,-37.494 37.494,-37.494 20.674,0 37.494,16.818 37.494,37.494 -0.001,20.671 -16.821,37.492 -37.494,37.492 z"
         fill="#041c3f"
         id="path5"
         style="fill:#003466;fill-opacity:1" /></g></g></svg>
