<?xml version="1.0" encoding="UTF-8" standalone="no"?>
<!-- Created with Inkscape (http://www.inkscape.org/) -->

<svg
   width="24.069mm"
   height="24.073mm"
   viewBox="0 0 24.069 24.073"
   version="1.1"
   id="svg1"
   xml:space="preserve"
   inkscape:version="1.3.2 (091e20e, 2023-11-25, custom)"
   sodipodi:docname="facebook_white.svg"
   xmlns:inkscape="http://www.inkscape.org/namespaces/inkscape"
   xmlns:sodipodi="http://sodipodi.sourceforge.net/DTD/sodipodi-0.dtd"
   xmlns="http://www.w3.org/2000/svg"
   xmlns:svg="http://www.w3.org/2000/svg"><sodipodi:namedview
     id="namedview1"
     pagecolor="#505050"
     bordercolor="#eeeeee"
     borderopacity="1"
     inkscape:showpageshadow="0"
     inkscape:pageopacity="0"
     inkscape:pagecheckerboard="0"
     inkscape:deskcolor="#505050"
     inkscape:document-units="mm"
     inkscape:zoom="2.768771"
     inkscape:cx="76.02651"
     inkscape:cy="79.999392"
     inkscape:window-width="1920"
     inkscape:window-height="991"
     inkscape:window-x="-9"
     inkscape:window-y="-9"
     inkscape:window-maximized="1"
     inkscape:current-layer="layer1" /><defs
     id="defs1" /><g
     inkscape:label="Layer 1"
     inkscape:groupmode="layer"
     id="layer1"><g
       id="g2"
       transform="matrix(0.49950128,0,0,0.49950128,-0.45303188,-0.45103202)"
       style="stroke:#f9f9f9;fill:#f9f9f9"><g
         id="Layer_1"
         style="stroke:#f9f9f9;fill:#f9f9f9"><path
           d="M 44,1 H 6 C 3.243,1 1,3.243 1,6 v 38 c 0,2.757 2.243,5 5,5 H 27 V 30 h -6 v -6 h 6 V 20 C 27,13.935 31.935,9 38,9 h 3 v 6 h -3 c -2.757,0 -5,2.243 -5,5 v 4 h 7.867 l -0.75,6 H 33 v 19 h 11 c 2.757,0 5,-2.243 5,-5 V 6 C 49,3.243 46.757,1 44,1 Z m 3,43 c 0,1.654 -1.346,3 -3,3 H 35 V 32 h 6.883 l 1.25,-10 H 35 v -2 c 0,-1.654 1.346,-3 3,-3 h 5 V 7 H 38 C 30.832,7 25,12.832 25,20 v 2 h -6 v 10 h 6 V 47 H 6 C 4.346,47 3,45.654 3,44 V 6 C 3,4.346 4.346,3 6,3 h 38 c 1.654,0 3,1.346 3,3 z"
           id="path1"
           style="stroke:#f9f9f9;fill:#f9f9f9" /></g><g
         id="g1"
         style="stroke:#f9f9f9;fill:#f9f9f9" /></g></g></svg>
