<?xml version="1.0" encoding="UTF-8" standalone="no"?>
<!-- Created with Inkscape (http://www.inkscape.org/) -->

<svg
   width="24.069mm"
   height="24.073mm"
   viewBox="0 0 24.069 24.073"
   version="1.1"
   id="svg1"
   xml:space="preserve"
   inkscape:version="1.3.2 (091e20e, 2023-11-25, custom)"
   sodipodi:docname="linkedin_white.svg"
   xmlns:inkscape="http://www.inkscape.org/namespaces/inkscape"
   xmlns:sodipodi="http://sodipodi.sourceforge.net/DTD/sodipodi-0.dtd"
   xmlns="http://www.w3.org/2000/svg"
   xmlns:svg="http://www.w3.org/2000/svg"><sodipodi:namedview
     id="namedview1"
     pagecolor="#505050"
     bordercolor="#eeeeee"
     borderopacity="1"
     inkscape:showpageshadow="0"
     inkscape:pageopacity="0"
     inkscape:pagecheckerboard="0"
     inkscape:deskcolor="#505050"
     inkscape:document-units="mm"
     inkscape:zoom="2.768771"
     inkscape:cx="76.02651"
     inkscape:cy="79.999392"
     inkscape:window-width="1920"
     inkscape:window-height="991"
     inkscape:window-x="-9"
     inkscape:window-y="-9"
     inkscape:window-maximized="1"
     inkscape:current-layer="layer1" /><defs
     id="defs1" /><g
     inkscape:label="Layer 1"
     inkscape:groupmode="layer"
     id="layer1"><g
       id="Shape"
       transform="matrix(1.1819578,0,0,1.1819578,-2.148994,-2.1469942)"
       style="fill:none;fill-rule:evenodd;stroke:#f9f9f9;stroke-width:1;fill-opacity:1;stroke-opacity:1"><line
         stroke="#000000"
         stroke-linecap="round"
         stroke-linejoin="round"
         stroke-width="2"
         x1="8"
         x2="8"
         y1="11"
         y2="17"
         id="line1"
         style="fill:none;fill-opacity:1;stroke:#f9f9f9;stroke-opacity:1" /><path
         d="m 8.0043926,7 c 0.5522848,0 1,0.4477152 1,1 0,0.5128358 -0.3860402,0.9355072 -0.8833789,0.9932723 L 8.0043926,9 C 7.4477152,9 7,8.5522848 7,8 7,7.4871642 7.3860402,7.0644928 7.8833789,7.0067277 Z"
         fill="#000000"
         fill-rule="nonzero"
         id="path1-6"
         style="fill:none;fill-opacity:1;stroke:#f9f9f9;stroke-opacity:1" /><line
         stroke="#000000"
         stroke-linecap="round"
         stroke-linejoin="round"
         stroke-width="2"
         x1="11"
         x2="11"
         y1="11"
         y2="17"
         id="line2"
         style="fill:none;fill-opacity:1;stroke:#f9f9f9;stroke-opacity:1" /><path
         d="m 11,17 v -3 c 0,-1.656854 1.343146,-3 3,-3 1.656854,0 3,1.343146 3,3 v 3 0"
         stroke="#000000"
         stroke-linecap="round"
         stroke-linejoin="round"
         stroke-width="2"
         id="path2-0"
         style="fill:none;fill-opacity:1;stroke:#f9f9f9;stroke-opacity:1" /><path
         d="m 6,3 h 12 c 1.656854,0 3,1.3431457 3,3 v 12 c 0,1.656854 -1.343146,3 -3,3 H 6 C 4.3431457,21 3,19.656854 3,18 V 6 C 3,4.3431457 4.3431457,3 6,3 Z"
         stroke="#000000"
         stroke-linecap="round"
         stroke-linejoin="round"
         stroke-width="2"
         id="path3"
         style="fill:none;fill-opacity:1;stroke:#f9f9f9;stroke-opacity:1" /></g></g></svg>
