<?xml version="1.0" encoding="UTF-8" standalone="no"?>
<!-- Created with Inkscape (http://www.inkscape.org/) -->

<svg
   width="24.069mm"
   height="24.073mm"
   viewBox="0 0 24.069 24.073"
   version="1.1"
   id="svg1"
   xml:space="preserve"
   inkscape:version="1.3.2 (091e20e, 2023-11-25, custom)"
   sodipodi:docname="satelite_whhite.svg"
   xmlns:inkscape="http://www.inkscape.org/namespaces/inkscape"
   xmlns:sodipodi="http://sodipodi.sourceforge.net/DTD/sodipodi-0.dtd"
   xmlns="http://www.w3.org/2000/svg"
   xmlns:svg="http://www.w3.org/2000/svg"><sodipodi:namedview
     id="namedview1"
     pagecolor="#505050"
     bordercolor="#eeeeee"
     borderopacity="1"
     inkscape:showpageshadow="0"
     inkscape:pageopacity="0"
     inkscape:pagecheckerboard="0"
     inkscape:deskcolor="#505050"
     inkscape:document-units="mm"
     inkscape:zoom="2.768771"
     inkscape:cx="77.832366"
     inkscape:cy="50.022193"
     inkscape:window-width="1920"
     inkscape:window-height="991"
     inkscape:window-x="-9"
     inkscape:window-y="-9"
     inkscape:window-maximized="1"
     inkscape:current-layer="layer1" /><defs
     id="defs1" /><g
     inkscape:label="Layer 1"
     inkscape:groupmode="layer"
     id="layer1"><g
       id="g3"
       transform="matrix(0.26458333,0,0,0.26458333,-0.00801014,-0.00404244)"
       style="fill:#003466;fill-opacity:1"><path
         d="m 10.14,31.51 c 0.004,0.004 0.006,0.01 0.012,0.014 0.004,0.005 0.01,0.008 0.014,0.013 l 9.381,9.378 c 0.49,0.49 1.133,0.736 1.775,0.736 0.642,0 1.287,-0.246 1.777,-0.736 l 7.137,-7.135 3.84,3.84 -9.744,9.744 c -0.98,0.982 -0.98,2.572 0,3.555 l 6.254,6.254 -2.42,2.422 c -3.314,-2.514 -7.447,-3.938 -11.688,-3.938 -4.201,0 -8.023,1.414 -10.488,3.877 -0.473,0.471 -0.736,1.111 -0.738,1.777 0,0.666 0.266,1.305 0.736,1.777 l 9.342,9.34 -0.895,0.895 c -0.982,0.98 -0.982,2.572 -0.002,3.553 0.49,0.492 1.135,0.736 1.777,0.736 0.642,0 1.285,-0.244 1.775,-0.734 l 0.896,-0.895 9.34,9.34 c 0.492,0.49 1.135,0.736 1.777,0.736 0.642,0 1.285,-0.246 1.777,-0.736 4.848,-4.848 5.563,-14.859 -0.053,-22.184 l 2.414,-2.412 6.254,6.254 c 0.473,0.473 1.111,0.736 1.777,0.736 0.666,0 1.307,-0.264 1.777,-0.736 l 9.747,-9.748 3.578,3.578 -7.141,7.141 c -0.98,0.98 -0.98,2.57 0,3.553 l 9.379,9.377 c 0.004,0.006 0.006,0.012 0.012,0.016 0.004,0.004 0.01,0.008 0.014,0.012 l 9.375,9.375 C 69.4,90.773 70.043,91 70.686,91 c 0.645,0 1.287,-0.227 1.777,-0.717 l 8.914,-8.914 h 0.002 v -0.002 l 8.916,-8.914 C 90.766,71.982 91,71.34 91,70.672 91,70.006 90.766,69.371 90.295,68.901 L 80.918,59.524 C 80.914,59.518 80.91,59.512 80.906,59.508 80.902,59.504 80.896,59.5 80.89,59.496 l -9.377,-9.377 c -0.941,-0.943 -2.611,-0.941 -3.553,0 L 60.823,57.256 57.247,53.68 71.483,39.438 c 2.615,-2.611 4.057,-6.096 4.057,-9.809 0,-3.715 -1.441,-7.197 -4.053,-9.807 -2.609,-2.611 -6.09,-4.051 -9.805,-4.051 -3.699,0 -7.17,1.43 -9.777,4.022 -0.012,0.011 -0.023,0.017 -0.035,0.028 -0.006,0.006 -0.01,0.012 -0.016,0.018 l -14.226,14.228 -3.84,-3.84 7.143,-7.143 c 0.471,-0.471 0.736,-1.11 0.736,-1.777 0,-0.666 -0.266,-1.305 -0.736,-1.776 L 22.15,0.75 C 21.17,-0.23 19.578,-0.23 18.597,0.751 L 0.765,18.584 c -0.98,0.98 -0.98,2.571 0,3.553 z M 29.664,79.656 11.658,61.65 c 1.365,-0.629 3.025,-0.969 4.82,-0.969 3.775,0 7.438,1.496 10.047,4.104 4.307,4.309 5.019,10.817 3.139,14.871 z m 31.16,-15.293 5.836,5.838 -5.361,5.363 -5.838,-5.838 z m 9.862,20.59 -5.834,-5.836 5.361,-5.361 5.836,5.836 z m 8.916,-8.914 -5.834,-5.838 5.361,-5.361 5.836,5.836 z m -9.864,-20.59 5.836,5.838 -5.359,5.361 -5.838,-5.838 z M 67.934,23.376 c 1.666,1.662 2.582,3.882 2.582,6.253 0,2.37 -0.916,4.591 -2.582,6.254 L 42.169,61.65 35.921,55.402 C 35.919,55.4 35.917,55.398 35.917,55.396 35.915,55.394 35.913,55.392 35.911,55.392 l -6.25,-6.252 23.989,-23.987 6.254,6.253 c 0.492,0.491 1.135,0.735 1.777,0.735 0.642,0 1.285,-0.245 1.777,-0.736 0.98,-0.98 0.98,-2.572 -0.002,-3.553 L 57.462,21.86 c 1.277,-0.692 2.719,-1.063 4.221,-1.063 2.372,0 4.59,0.915 6.251,2.579 z m -46.612,12.209 -5.84,-5.839 5.363,-5.361 5.838,5.84 z m 8.914,-8.913 -5.838,-5.84 5.365,-5.363 5.838,5.838 z m -9.863,-20.591 5.836,5.836 -5.363,5.363 -5.834,-5.836 z m -8.915,8.916 5.834,5.836 -5.363,5.361 -5.834,-5.834 z"
         id="path1"
         style="fill:#003466;fill-opacity:1" /><path
         d="m 11.189,83.674 1.395,-1.396 c 0.982,-0.98 0.982,-2.57 0,-3.553 -0.98,-0.98 -2.572,-0.98 -3.553,0 l -1.395,1.396 c -0.982,0.98 -0.982,2.57 0,3.553 0.49,0.49 1.133,0.736 1.775,0.736 0.645,0 1.288,-0.246 1.778,-0.736 z"
         id="path2"
         style="fill:#003466;fill-opacity:1" /><path
         d="m 3.462,90.359 c 0.643,0 1.287,-0.246 1.777,-0.738 L 5.786,89.074 C 6.766,88.092 6.765,86.5 5.782,85.521 4.8,84.541 3.208,84.542 2.229,85.525 l -0.547,0.547 c -0.98,0.984 -0.979,2.574 0.004,3.555 0.491,0.488 1.134,0.732 1.776,0.732 z"
         id="path3"
         style="fill:#003466;fill-opacity:1" /></g></g></svg>
