<?xml version="1.0" encoding="UTF-8" standalone="no"?>
<!-- Created with Inkscape (http://www.inkscape.org/) -->

<svg
   width="24.069mm"
   height="24.073mm"
   viewBox="0 0 24.069 24.073"
   version="1.1"
   id="svg1"
   xml:space="preserve"
   inkscape:version="1.3.2 (091e20e, 2023-11-25, custom)"
   sodipodi:docname="solar _sytem_blue.svg"
   xmlns:inkscape="http://www.inkscape.org/namespaces/inkscape"
   xmlns:sodipodi="http://sodipodi.sourceforge.net/DTD/sodipodi-0.dtd"
   xmlns="http://www.w3.org/2000/svg"
   xmlns:svg="http://www.w3.org/2000/svg"><sodipodi:namedview
     id="namedview1"
     pagecolor="#505050"
     bordercolor="#eeeeee"
     borderopacity="1"
     inkscape:showpageshadow="0"
     inkscape:pageopacity="0"
     inkscape:pagecheckerboard="0"
     inkscape:deskcolor="#505050"
     inkscape:document-units="mm"
     inkscape:zoom="2.768771"
     inkscape:cx="77.832366"
     inkscape:cy="50.744535"
     inkscape:window-width="1920"
     inkscape:window-height="991"
     inkscape:window-x="-9"
     inkscape:window-y="-9"
     inkscape:window-maximized="1"
     inkscape:current-layer="layer1" /><defs
     id="defs1" /><g
     inkscape:label="Layer 1"
     inkscape:groupmode="layer"
     id="layer1"><g
       id="Galaxy"
       transform="matrix(0.38881128,0,0,0.38881128,-0.4074446,-0.40397357)"
       style="fill:#003466;fill-opacity:1"><path
         d="m 32,24.9707 a 7,7 0 1 0 7,7 7.0081,7.0081 0 0 0 -7,-7 z m 0,12 a 5,5 0 1 1 5,-5 5.0059,5.0059 0 0 1 -5,5 z"
         id="path1-2"
         style="fill:#003466;fill-opacity:1" /><path
         d="m 42.0659,28.1455 0.0532,-2.4551 a 1,1 0 0 0 -0.6655,-0.9638 l -2.3149,-0.8213 -1.0938,-2.1992 a 1,1 0 0 0 -1.0376,-0.545 l -2.4311,0.35 -1.9908,-1.4384 a 1.0011,1.0011 0 0 0 -1.1708,0 l -1.9908,1.4384 -2.4311,-0.35 a 1.0075,1.0075 0 0 0 -1.0376,0.545 l -1.0938,2.1992 -2.3149,0.8213 a 1,1 0 0 0 -0.6655,0.9638 l 0.0532,2.4551 -1.668,1.8037 a 0.9982,0.9982 0 0 0 -0.1411,1.1621 l 1.188,2.1494 -0.6392,2.3711 a 1,1 0 0 0 0.4156,1.0957 l 2.0506,1.3506 0.5357,2.3975 a 1.0009,1.0009 0 0 0 0.8769,0.7773 l 2.4439,0.2432 1.5888,1.873 a 0.992,0.992 0 0 0 1.1377,0.28 L 32,42.73 l 2.2769,0.92 a 0.987,0.987 0 0 0 0.3745,0.0733 0.9987,0.9987 0 0 0 0.7632,-0.3536 l 1.5888,-1.873 2.4439,-0.2432 a 1.0009,1.0009 0 0 0 0.8769,-0.7773 l 0.5357,-2.3975 2.0507,-1.3506 a 1,1 0 0 0 0.4156,-1.0957 l -0.6392,-2.3711 1.188,-2.1494 a 0.9982,0.9982 0 0 0 -0.1411,-1.1621 z m -1.415,5.2461 0.5561,2.0635 -1.7846,1.1758 a 0.9976,0.9976 0 0 0 -0.4263,0.6171 l -0.4661,2.086 -2.127,0.2119 a 0.9967,0.9967 0 0 0 -0.6635,0.3486 l -1.3829,1.63 -1.9814,-0.8008 a 0.9972,0.9972 0 0 0 -0.75,0 l -1.9814,0.8008 -1.3829,-1.63 A 0.9967,0.9967 0 0 0 27.5974,39.5459 L 25.47,39.334 25.0037,37.248 a 0.9976,0.9976 0 0 0 -0.4263,-0.6171 l -1.7844,-1.1758 0.5561,-2.0635 a 0.9972,0.9972 0 0 0 -0.09,-0.7441 l -1.0342,-1.8711 1.4517,-1.5694 a 0.9985,0.9985 0 0 0 0.2661,-0.7 L 23.896,26.37 25.9111,25.6552 a 1.0017,1.0017 0 0 0 0.5611,-0.4971 l 0.9521,-1.9141 2.1153,0.3038 a 0.9919,0.9919 0 0 0 0.7275,-0.18 L 32,22.1162 l 1.7329,1.252 a 1,1 0 0 0 0.7275,0.18 l 2.1153,-0.3038 0.9521,1.9141 a 1.0017,1.0017 0 0 0 0.5611,0.4971 l 2.0151,0.7148 -0.0464,2.1367 a 0.9985,0.9985 0 0 0 0.2661,0.7 l 1.4517,1.5694 -1.0342,1.8711 a 0.9972,0.9972 0 0 0 -0.0903,0.744 z"
         id="path2-4"
         style="fill:#003466;fill-opacity:1" /><path
         d="M 32,2 A 29.6269,29.6269 0 0 0 20.6632,4.2323 5.9968,5.9968 0 0 0 10.7269,10.8605 29.9705,29.9705 0 0 0 9.1708,51.4541 5.9935,5.9935 0 0 0 18.609,58.8356 29.9962,29.9962 0 1 0 32,2 Z M 16,4 a 4,4 0 1 1 -4,4 4.0042,4.0042 0 0 1 4,-4 z m -2,55 a 4,4 0 1 1 4,-4 4.0042,4.0042 0 0 1 -4,4 z m 18,1 a 27.9977,27.9977 0 0 1 -12.3877,-2.8973 5.9918,5.9918 0 0 0 -9.0059,-7.0458 27.9774,27.9774 0 0 1 1.37,-37.6187 5.9866,5.9866 0 0 0 9.67,-6.4485 A 27.6507,27.6507 0 0 1 32,4 28,28 0 0 1 32,60 Z"
         id="path3"
         style="fill:#003466;fill-opacity:1" /><path
         d="m 52.9905,32.3466 c 0.0019,-0.1161 0.01,-0.229 0.01,-0.3466 A 21.0412,21.0412 0 1 0 49.373,43.77 5.994,5.994 0 0 0 52.991,32.3469 Z M 32,51 A 19,19 0 1 1 51,32 5.9947,5.9947 0 0 0 47.55,42.9007 18.8425,18.8425 0 0 1 32,51 Z m 19,-9 a 4,4 0 1 1 4,-4 4.0042,4.0042 0 0 1 -4,4 z"
         id="path4"
         style="fill:#003466;fill-opacity:1" /></g></g></svg>
