<?xml version="1.0" encoding="UTF-8" standalone="no"?>
<!-- Created with Inkscape (http://www.inkscape.org/) -->

<svg
   width="24.069mm"
   height="24.073mm"
   viewBox="0 0 24.069 24.073"
   version="1.1"
   id="svg1"
   xml:space="preserve"
   inkscape:version="1.3.2 (091e20e, 2023-11-25, custom)"
   sodipodi:docname="ufo_blue.svg"
   xmlns:inkscape="http://www.inkscape.org/namespaces/inkscape"
   xmlns:sodipodi="http://sodipodi.sourceforge.net/DTD/sodipodi-0.dtd"
   xmlns="http://www.w3.org/2000/svg"
   xmlns:svg="http://www.w3.org/2000/svg"><sodipodi:namedview
     id="namedview1"
     pagecolor="#505050"
     bordercolor="#eeeeee"
     borderopacity="1"
     inkscape:showpageshadow="0"
     inkscape:pageopacity="0"
     inkscape:pagecheckerboard="0"
     inkscape:deskcolor="#505050"
     inkscape:document-units="mm"
     inkscape:zoom="2.768771"
     inkscape:cx="77.832366"
     inkscape:cy="50.022193"
     inkscape:window-width="1920"
     inkscape:window-height="991"
     inkscape:window-x="-9"
     inkscape:window-y="-9"
     inkscape:window-maximized="1"
     inkscape:current-layer="layer1" /><defs
     id="defs1" /><g
     inkscape:label="Layer 1"
     inkscape:groupmode="layer"
     id="layer1"><g
       id="g14"
       transform="matrix(0.26458333,0,0,0.26458333,-3.3722631e-4,-0.03577591)"
       style="fill:#003466;fill-opacity:1"><path
         d="m 32.647,33.9 c 0.254,0.08 0.512,0.119 0.766,0.119 1.063,0 2.051,-0.682 2.393,-1.75 0.955,-2.994 1.986,-4.192 4.416,-5.127 1.295,-0.498 1.941,-1.951 1.443,-3.246 -0.498,-1.296 -1.951,-1.941 -3.248,-1.443 -4.498,1.73 -6.211,4.564 -7.398,8.289 -0.422,1.322 0.306,2.736 1.628,3.158 z"
         id="path1-5"
         style="fill:#003466;fill-opacity:1" /><path
         d="m 19.95,56.568 c 1.965,5.912 13.814,8.996 25.537,8.996 11.723,0 23.572,-3.084 25.537,-8.996 11.404,-2.58 19.602,-7.064 19.602,-13.352 0,-5.975 -7.811,-10.938 -21.471,-13.732 -2.631,-9.051 -10.633,-15.738 -20.664,-16.86 2.055,-1.063 3.467,-3.205 3.467,-5.674 0,-3.522 -2.865,-6.389 -6.389,-6.389 -3.521,0 -6.389,2.866 -6.389,6.389 0,2.456 1.396,4.59 3.436,5.658 -10.092,1.077 -18.15,7.781 -20.795,16.868 -8.508,1.738 -21.475,5.706 -21.475,13.74 0.001,6.288 8.198,10.772 19.604,13.352 z m 25.537,3.971 c -7.029,0 -12.301,-1.055 -15.785,-2.311 5.07,0.617 10.434,0.932 15.785,0.932 5.35,0 10.713,-0.314 15.785,-0.932 -3.484,1.256 -8.757,2.311 -15.785,2.311 z M 45.569,5.587 c 0.752,0 1.363,0.611 1.363,1.363 0,0.751 -0.611,1.361 -1.363,1.361 -0.752,0 -1.363,-0.61 -1.363,-1.361 0,-0.751 0.611,-1.363 1.363,-1.363 z M 42.974,17.63 v 0.428 c 0,1.388 1.125,2.513 2.514,2.513 1.387,0 2.512,-1.125 2.512,-2.513 V 17.63 c 9.881,1.101 17.059,8.627 17.059,18.386 0,1.419 -4.09,4.102 -19.57,4.102 -15.482,0 -19.572,-2.683 -19.572,-4.102 C 25.915,26.257 33.093,18.731 42.974,17.63 Z M 20.921,34.822 c -0.02,0.395 -0.031,0.793 -0.031,1.194 0,8.183 14.039,9.128 24.598,9.128 10.559,0 24.596,-0.945 24.596,-9.128 0,-0.401 -0.01,-0.8 -0.029,-1.194 10.211,2.363 15.547,5.885 15.547,8.395 0,4.453 -15.627,10.918 -40.113,10.918 C 21.001,54.135 5.374,47.67 5.374,43.217 5.372,40.721 10.71,37.184 20.921,34.822 Z"
         id="path2-5"
         style="fill:#003466;fill-opacity:1" /><path
         d="m 36.054,69.916 c 0,-1.389 -1.125,-2.514 -2.514,-2.514 -1.387,0 -2.512,1.125 -2.512,2.514 v 6.752 c 0,1.387 1.125,2.512 2.512,2.512 1.389,0 2.514,-1.125 2.514,-2.512 z"
         id="path3-5"
         style="fill:#003466;fill-opacity:1" /><path
         d="m 33.54,81.029 c -1.387,0 -2.512,1.125 -2.512,2.514 v 4.295 c 0,1.389 1.125,2.514 2.512,2.514 1.389,0 2.514,-1.125 2.514,-2.514 v -4.295 c 0,-1.389 -1.125,-2.514 -2.514,-2.514 z"
         id="path4"
         style="fill:#003466;fill-opacity:1" /><path
         d="m 58.142,77.545 c -1.387,0 -2.512,1.125 -2.512,2.514 v 7.779 c 0,1.389 1.125,2.514 2.512,2.514 1.389,0 2.514,-1.125 2.514,-2.514 V 80.059 C 60.655,78.67 59.53,77.545 58.142,77.545 Z"
         id="path5"
         style="fill:#003466;fill-opacity:1" /><path
         d="m 60.655,69.916 c 0,-1.389 -1.125,-2.514 -2.514,-2.514 -1.387,0 -2.512,1.125 -2.512,2.514 v 3.266 c 0,1.389 1.125,2.514 2.512,2.514 1.389,0 2.514,-1.125 2.514,-2.514 z"
         id="path6"
         style="fill:#003466;fill-opacity:1" /><path
         d="m 48.479,69.857 c 0,-1.387 -1.125,-2.512 -2.512,-2.512 -1.389,0 -2.514,1.125 -2.514,2.512 v 2.814 c 0,1.389 1.125,2.514 2.514,2.514 1.387,0 2.512,-1.125 2.512,-2.514 z"
         id="path7"
         style="fill:#003466;fill-opacity:1" /><path
         d="m 48.479,79.141 c 0,-1.387 -1.125,-2.512 -2.512,-2.512 -1.389,0 -2.514,1.125 -2.514,2.512 v 2.168 c 0,1.387 1.125,2.512 2.514,2.512 1.387,0 2.512,-1.125 2.512,-2.512 z"
         id="path8"
         style="fill:#003466;fill-opacity:1" /><path
         d="m 45.968,85.326 c -1.389,0 -2.514,1.125 -2.514,2.512 v 0.344 c 0,1.387 1.125,2.512 2.514,2.512 1.387,0 2.512,-1.125 2.512,-2.512 v -0.344 c -10e-4,-1.387 -1.126,-2.512 -2.512,-2.512 z"
         id="path9"
         style="fill:#003466;fill-opacity:1" /><path
         d="m 66.313,48.984 c 0.18,0 0.361,-0.02 0.543,-0.059 l 0.055,-0.012 c 1.359,-0.271 2.242,-1.596 1.971,-2.958 -0.273,-1.361 -1.59,-2.246 -2.957,-1.972 l -0.15,0.031 c -1.355,0.299 -2.211,1.642 -1.912,2.996 0.259,1.176 1.298,1.974 2.45,1.974 z"
         id="path10"
         style="fill:#003466;fill-opacity:1" /><path
         d="m 45.765,52.174 h 0.139 c 1.389,0 2.479,-1.125 2.479,-2.512 0,-1.389 -1.158,-2.514 -2.547,-2.514 -0.012,0 -0.023,0 -0.035,0 -1.371,0 -2.492,1.102 -2.512,2.479 -0.02,1.387 1.089,2.527 2.476,2.547 z"
         id="path11"
         style="fill:#003466;fill-opacity:1" /><path
         d="m 35.128,51.488 0.096,0.01 c 0.096,0.012 0.193,0.018 0.287,0.018 1.26,0 2.348,-0.945 2.494,-2.229 0.158,-1.377 -0.832,-2.623 -2.211,-2.781 l -0.111,-0.012 c -1.373,-0.158 -2.621,0.84 -2.775,2.219 -0.153,1.379 0.841,2.621 2.22,2.775 z"
         id="path12"
         style="fill:#003466;fill-opacity:1" /><path
         d="m 24.64,49.854 0.08,0.016 c 0.166,0.033 0.332,0.051 0.496,0.051 1.172,0 2.221,-0.826 2.461,-2.021 0.271,-1.361 -0.611,-2.686 -1.971,-2.959 l -0.123,-0.023 c -1.363,-0.258 -2.68,0.635 -2.939,1.999 -0.262,1.36 0.632,2.677 1.996,2.937 z"
         id="path13"
         style="fill:#003466;fill-opacity:1" /><path
         d="m 56.151,51.256 c 0.152,0 0.307,-0.014 0.463,-0.043 l 0.102,-0.02 c 1.365,-0.252 2.266,-1.564 2.012,-2.928 -0.254,-1.365 -1.564,-2.268 -2.93,-2.012 l -0.102,0.02 c -1.365,0.252 -2.266,1.564 -2.012,2.928 0.225,1.209 1.28,2.055 2.467,2.055 z"
         id="path14"
         style="fill:#003466;fill-opacity:1" /></g></g></svg>
