<?xml version="1.0" encoding="UTF-8" standalone="no"?>
<!-- Created with Inkscape (http://www.inkscape.org/) -->

<svg
   width="24.069mm"
   height="24.073mm"
   viewBox="0 0 24.069 24.073"
   version="1.1"
   id="svg1"
   xml:space="preserve"
   inkscape:version="1.3.2 (091e20e, 2023-11-25, custom)"
   sodipodi:docname="whatsapp_white.svg"
   xmlns:inkscape="http://www.inkscape.org/namespaces/inkscape"
   xmlns:sodipodi="http://sodipodi.sourceforge.net/DTD/sodipodi-0.dtd"
   xmlns="http://www.w3.org/2000/svg"
   xmlns:svg="http://www.w3.org/2000/svg"><sodipodi:namedview
     id="namedview1"
     pagecolor="#505050"
     bordercolor="#eeeeee"
     borderopacity="1"
     inkscape:showpageshadow="0"
     inkscape:pageopacity="0"
     inkscape:pagecheckerboard="0"
     inkscape:deskcolor="#505050"
     inkscape:document-units="mm"
     inkscape:zoom="2.768771"
     inkscape:cx="76.02651"
     inkscape:cy="79.999392"
     inkscape:window-width="1920"
     inkscape:window-height="991"
     inkscape:window-x="-9"
     inkscape:window-y="-9"
     inkscape:window-maximized="1"
     inkscape:current-layer="layer1" /><defs
     id="defs1" /><g
     inkscape:label="Layer 1"
     inkscape:groupmode="layer"
     id="layer1"><g
       style="fill:none;stroke:#f9f9f9;stroke-width:2;stroke-linecap:round;stroke-linejoin:round"
       id="g2"
       transform="matrix(1.1018422,0,0,1.1018422,-1.1826038,-1.183098)"><path
         d="m 3,21 1.65,-3.8 a 9,9 0 1 1 3.4,2.9 L 3,21"
         id="path2"
         style="stroke:#f9f9f9" /><path
         d="m 9,10 a 0.5,0.5 0 0 0 1,0 V 9 A 0.5,0.5 0 0 0 9,9 v 1 a 5,5 0 0 0 5,5 h 1 a 0.5,0.5 0 0 0 0,-1 h -1 a 0.5,0.5 0 0 0 0,1"
         id="path3"
         style="stroke:#f9f9f9" /></g></g></svg>
